<?xml version="1.0" encoding="UTF-8"?>
<svg width="12px" height="12px" viewBox="0 0 12 12" version="1.1" xmlns="http://www.w3.org/2000/svg" xmlns:xlink="http://www.w3.org/1999/xlink">
    <title>icon_seach</title>
    <g id="icon_seach" stroke="none" stroke-width="1" fill="none" fill-rule="evenodd">
        <g id="icon_seach" transform="translate(-432.000000, -118.000000)" fill="#999999">
            <g id="seach" transform="translate(420.000000, 106.000000)">
                <g id="icon_seach-" transform="translate(12.000000, 12.000000)">
                    <path d="M1.11628556,5.30235641 C1.11628556,2.99415694 2.99415694,1.11628556 5.30235641,1.11628556 C7.61055588,1.11628556 9.48842726,2.99415694 9.48842726,5.30235641 C9.48842726,6.44124675 9.02991296,7.47408997 8.28953657,8.22981529 C8.27865278,8.23902465 8.26693178,8.2462805 8.25660614,8.25660614 C8.2462805,8.26693178 8.23902465,8.27865278 8.22981529,8.28953657 C7.47408997,9.02991296 6.44124675,9.48842726 5.30235641,9.48842726 C2.99415694,9.48842726 1.11628556,7.61055588 1.11628556,5.30235641 M11.8365339,11.04732 L9.42256641,8.63335252 C10.1604312,7.72190536 10.6047128,6.56375909 10.6047128,5.30235641 C10.6047128,2.37852546 8.22618736,1.99840144e-13 5.30235641,1.99840144e-13 C2.37852546,1.99840144e-13 0,2.37852546 0,5.30235641 C0,8.22618736 2.37852546,10.6047128 5.30235641,10.6047128 C6.56375909,10.6047128 7.72190536,10.1604312 8.63335252,9.42256641 L11.04732,11.8365339 C11.156437,11.9456508 11.2990424,12.0000698 11.441927,12.0000698 C11.5848115,12.0000698 11.727417,11.9456508 11.8365339,11.8365339 C12.0544887,11.6185792 12.0544887,11.2652748 11.8365339,11.04732" id="icon_seach"></path>
                </g>
            </g>
        </g>
    </g>
</svg>
