<?xml version="1.0" encoding="UTF-8"?>
<svg width="14px" height="8px" viewBox="0 0 14 8" version="1.1" xmlns="http://www.w3.org/2000/svg" xmlns:xlink="http://www.w3.org/1999/xlink">
    <title>icon_hide</title>
    <g id="icon_hide" stroke="none" stroke-width="1" fill="none" fill-rule="evenodd">
        <g id="icon_hide" transform="translate(-1446.000000, -560.000000)" fill="#999999">
            <g id="login" transform="translate(1140.000000, 352.000000)">
                <g id="password" transform="translate(0.000000, 192.000000)">
                    <g id="icon_hide-" transform="translate(306.000000, 16.000000)">
                        <path d="M13.7331688,0.118971663 C13.4471229,-0.0862559023 13.0493951,-0.0191194428 12.8457584,0.267562785 C11.5437566,2.0926563 9.35848071,3.18243058 7.00011371,3.18243058 C4.64206488,3.18243058 2.45678904,2.0926563 1.154469,0.267562785 C0.950832343,-0.0188012605 0.55278632,-0.0853013555 0.267058639,0.118971663 C-0.0193054058,0.323244682 -0.0858055007,0.72065434 0.118467518,1.00638202 C0.915832293,2.12447453 1.99160656,3.00647579 3.22647195,3.59988572 L1.83919725,5.58120673 C1.63778787,5.86916169 1.70778797,6.26593498 1.99542474,6.46766254 C2.10678854,6.54529902 2.23406145,6.58252634 2.36006163,6.58252634 C2.56083464,6.58252634 2.75810765,6.48834439 2.88188055,6.31143505 L4.44638279,4.07652277 C5.06270185,4.26361394 5.70574822,4.38229593 6.36374916,4.42970509 L6.36374916,6.68243558 C6.36374916,7.03370881 6.64852229,7.31880012 7.00011371,7.31880012 C7.35138693,7.31880012 7.63647825,7.03370881 7.63647825,6.68243558 L7.63647825,4.42970509 C8.29447919,4.38229593 8.93752556,4.26361394 9.55352644,4.07652277 L11.1180287,6.31143505 C11.2421198,6.48834439 11.4393928,6.58252634 11.6401658,6.58252634 C11.7658478,6.58252634 11.8934389,6.54529902 12.0044845,6.46766254 C12.2924394,6.26593498 12.3621214,5.86916169 12.1610302,5.58120673 L10.7737555,3.59988572 C12.0086209,3.00647579 13.0843951,2.12447453 13.8817599,1.00638202 C14.0857147,0.720336158 14.0192146,0.3229265 13.7331688,0.118971663" id="icon_hide"></path>
                    </g>
                </g>
            </g>
        </g>
    </g>
</svg>
