<?xml version="1.0" encoding="UTF-8"?>
<svg width="14px" height="10px" viewBox="0 0 14 10" version="1.1" xmlns="http://www.w3.org/2000/svg" xmlns:xlink="http://www.w3.org/1999/xlink">
    <title>icon_view</title>
    <g id="icon_view" stroke="none" stroke-width="1" fill="none" fill-rule="evenodd">
        <g id="icon_view" transform="translate(-1446.000000, -629.000000)" fill="#999999">
            <g id="login" transform="translate(1140.000000, 352.000000)">
                <g id="confirm-password" transform="translate(0.000000, 262.000000)">
                    <g id="icon_view-" transform="translate(306.000000, 15.000000)">
                        <g id="icon_view">
                            <path d="M6.99942727,1.29028125 C4.33115455,1.29028125 1.9642,4.13496875 1.30206364,5.00684375 C1.9642,5.86528125 4.33115455,8.70965625 6.99942727,8.70965625 C9.65879091,8.70965625 12.0203364,5.88215625 12.6920182,4.99996875 C12.0203364,4.11778125 9.65879091,1.29028125 6.99942727,1.29028125 M6.99942727,9.99996875 C3.81760909,9.99996875 1.22729091,7.04121875 0.261609091,5.76903125 C-0.0871181818,5.30903125 -0.0871181818,4.69090625 0.261290909,4.23090625 C1.22729091,2.95871875 3.81760909,-3.125e-05 6.99942727,-3.125e-05 C10.1812455,-3.125e-05 12.7728364,2.96028125 13.7388364,4.23278125 L13.7391545,4.23278125 C14.0869273,4.69184375 14.0869273,5.30809375 13.7391545,5.76715625 C12.7728364,7.03965625 10.1812455,9.99996875 6.99942727,9.99996875" id="Fill-1"></path>
                            <path d="M8.90851818,5 C8.90851818,6.0353125 8.05356364,6.875 6.99942727,6.875 C5.94529091,6.875 5.09033636,6.0353125 5.09033636,5 C5.09033636,3.9646875 5.94529091,3.125 6.99942727,3.125 C8.05356364,3.125 8.90851818,3.9646875 8.90851818,5" id="Fill-3"></path>
                        </g>
                    </g>
                </g>
            </g>
        </g>
    </g>
</svg>
