<?xml version="1.0" encoding="UTF-8"?>
<svg width="14px" height="14px" viewBox="0 0 14 14" version="1.1" xmlns="http://www.w3.org/2000/svg" xmlns:xlink="http://www.w3.org/1999/xlink">
    <title>icon_copy</title>
    <g id="icon_copy" stroke="none" stroke-width="1" fill="none" fill-rule="evenodd">
        <g id="icon_copy" transform="translate(-1219.000000, -432.000000)" fill="#666666">
            <g id="generate-account_pre" transform="translate(937.000000, 393.000000)">
                <g id="icon_copy-" transform="translate(282.000000, 39.000000)">
                    <g id="icon_copy">
                        <path d="M12.7272727,12.7272727 L4.45454545,12.7272727 L4.45454545,10.8181818 L9.54545455,10.8181818 C10.2473636,10.8181818 10.8181818,10.2473636 10.8181818,9.54545455 L10.8181818,4.45454545 L12.7272727,4.45454545 L12.7272727,12.7272727 Z M1.27272727,1.27272727 L9.54545455,1.27177273 L9.54545455,9.54545455 L1.27272727,9.54545455 L1.27272727,1.27272727 Z M12.7272727,3.18181818 L10.8181818,3.18181818 L10.8181818,1.27272727 C10.8181818,0.570818182 10.2473636,0 9.54545455,0 L1.27272727,0 C0.570818182,0 0,0.570818182 0,1.27272727 L0,9.54545455 C0,10.2473636 0.570818182,10.8181818 1.27272727,10.8181818 L3.18181818,10.8181818 L3.18181818,12.7272727 C3.18181818,13.4291818 3.75263636,14 4.45454545,14 L12.7272727,14 C13.4291818,14 14,13.4291818 14,12.7272727 L14,4.45454545 C14,3.75263636 13.4291818,3.18181818 12.7272727,3.18181818 L12.7272727,3.18181818 Z" id="Fill-1"></path>
                        <path d="M4.77272727,7.63636364 C4.77272727,7.98763636 5.05781818,8.27272727 5.40909091,8.27272727 C5.76036364,8.27272727 6.04545455,7.98763636 6.04545455,7.63636364 L6.04545455,6.04545455 L7.63636364,6.04545455 C7.98763636,6.04545455 8.27272727,5.76036364 8.27272727,5.40909091 C8.27272727,5.05781818 7.98763636,4.77272727 7.63636364,4.77272727 L6.04545455,4.77272727 L6.04545455,3.18181818 C6.04545455,2.83054545 5.76036364,2.54545455 5.40909091,2.54545455 C5.05781818,2.54545455 4.77272727,2.83054545 4.77272727,3.18181818 L4.77272727,4.77272727 L3.18181818,4.77272727 C2.83054545,4.77272727 2.54545455,5.05781818 2.54545455,5.40909091 C2.54545455,5.76036364 2.83054545,6.04545455 3.18181818,6.04545455 L4.77272727,6.04545455 L4.77272727,7.63636364 Z" id="Fill-3"></path>
                    </g>
                </g>
            </g>
        </g>
    </g>
</svg>
